<svg version="1.0" xmlns="http://www.w3.org/2000/svg" width="800.000000" height="800.000000" viewBox="0 0 800.000000 800.000000" preserveAspectRatio="xMidYMid meet">
  <metadata>
    <rdf:RDF xmlns:rdf="http://www.w3.org/1999/02/22-rdf-syntax-ns#" xmlns:rdfs="http://www.w3.org/2000/01/rdf-schema#" xmlns:dc="http://purl.org/dc/elements/1.1/">
      <rdf:Description dc:format="image/svg+xml" dc:Label="1" dc:ContentProducer="001191330110MACRLGPT8B00000" dc:ProduceID="358366302" dc:ReservedCode1="rvT0HYlW82+k1pUablv7egGIgApz7dE2PjgBEjYQzf4=" dc:ContentPropagator="001191330110MACRLGPT8B00000" dc:PropagateID="358366302" dc:ReservedCode2="rvT0HYlW82+k1pUablv7egGIgApz7dE2PjgBEjYQzf4="/>
    </rdf:RDF>
  </metadata>
  <g transform="translate(21.447192,708.214587) scale(0.083513,-0.083513)" fill="#000000" stroke="none">
    <path d="M5118 5236 c-21 -8 -48 -20 -60 -28 -28 -18 -169 -149 -335 -310 -67 -65 -130 -118 -140 -118 -98 1 -507 -12 -536 -16 -66 -10 -90 -86 -35 -111 15 -7 97 -9 231 -5 122 3 207 1 207 -4 0 -5 -93 -97 -207 -203 -115 -107 -269 -253 -343 -326 -74 -72 -139 -134 -145 -137 -7 -4 -10 129 -10 390 0 364 -2 400 -18 434 -28 56 -48 60 -291 56 -206 -3 -216 -4 -237 -25 -13 -12 -25 -42 -30 -70 -10 -60 -10 -570 0 -800 6 -147 10 -175 25 -192 29 -31 73 -28 93 8 l17 28 145 10 c80 5 148 7 151 5 3 -2 -90 -97 -205 -210 -206 -203 -211 -208 -239 -282 -16 -41 -93 -213 -172 -381 -79 -169 -144 -317 -144 -329 0 -33 16 -56 49 -69 36 -16 90 5 341 128 96 48 232 113 303 145 70 33 141 69 158 82 30 22 96 85 476 455 105 103 215 206 243 228 l52 41 216 0 c232 0 274 6 322 47 64 53 65 59 68 378 2 286 2 291 -20 329 -33 56 -77 76 -166 76 -41 0 -72 3 -70 8 2 4 44 46 94 95 l90 87 95 0 c95 0 139 -14 139 -43 0 -6 -27 -36 -60 -67 -49 -45 -60 -62 -60 -87 0 -34 29 -63 62 -63 22 0 309 253 366 323 54 66 76 138 69 223 -10 136 -139 267 -298 303 -61 14 -147 13 -191 -3z m247 -157 c61 -37 114 -105 116 -148 4 -88 -14 -125 -93 -196 l-51 -46 -71 68 c-39 38 -111 108 -161 155 l-89 87 19 22 c11 12 42 40 70 62 l50 39 77 -4 c65 -4 85 -10 133 -39z m-368 -241 l64 -63 -137 3 -137 3 59 60 c32 32 65 59 72 59 8 0 43 -28 79 -62z m-1375 -145 c2 -27 2 -204 0 -395 l-5 -346 -116 -6 c-64 -4 -137 -9 -163 -12 l-48 -5 0 406 0 405 164 0 164 0 4 -47z m1083 -143 l-100 -100 -80 0 -80 0 102 100 102 100 78 0 78 0 -100 -100z m223 -222 c6 -7 12 -33 13 -58 l4 -45 -314 -3 -314 -2 6 41 c3 22 8 43 11 46 3 3 99 10 213 15 115 4 224 10 243 11 84 8 128 6 138 -5z m-885 -487 c-81 -80 -233 -227 -337 -329 -197 -192 -234 -222 -277 -222 -34 0 -112 56 -102 73 4 7 199 201 433 432 l425 420 3 -115 3 -115 -148 -144z m897 114 c0 -142 -2 -157 -20 -175 -19 -19 -33 -20 -284 -20 -251 0 -265 1 -290 21 -14 11 -26 31 -26 43 0 23 1 23 182 29 99 4 219 7 265 7 70 0 86 3 103 20 23 23 26 58 6 86 -14 18 -26 19 -243 16 -125 -2 -247 -5 -270 -9 l-43 -5 0 61 0 61 213 1 c173 1 360 9 400 17 4 1 7 -68 7 -153z m-685 -261 l37 -30 -306 -300 c-168 -164 -312 -300 -319 -302 -20 -4 -132 64 -135 82 -3 12 29 50 90 109 51 51 198 196 327 322 l234 230 17 -41 c10 -22 34 -54 55 -70z m-965 -474 c14 -27 62 -50 103 -50 l34 0 -11 -51 c-13 -64 -6 -76 71 -114 l61 -30 -267 -131 c-146 -72 -267 -130 -269 -129 -1 1 48 105 109 230 60 126 116 243 124 262 16 38 30 42 45 13z"/>
    <path d="M2533 5032 c-7 -4 -26 -41 -43 -82 -41 -99 -80 -168 -151 -263 -61 -83 -68 -101 -46 -131 34 -46 99 -8 173 100 41 59 68 69 155 58 l51 -7 -4 -103 c-3 -57 -7 -106 -9 -108 -2 -3 -80 -8 -172 -12 -154 -6 -169 -9 -182 -28 -20 -28 -19 -60 4 -80 16 -15 39 -17 170 -15 83 1 153 0 156 -3 6 -6 -31 -155 -50 -203 -35 -83 -125 -202 -229 -303 -58 -56 -106 -109 -106 -118 0 -18 44 -64 62 -64 72 0 321 277 374 415 9 25 20 45 25 45 13 0 117 -122 186 -219 78 -109 101 -124 141 -94 44 34 35 67 -48 180 -40 54 -110 136 -156 183 l-82 85 9 49 c5 27 10 51 12 52 1 2 72 8 157 14 138 9 157 13 173 31 21 26 22 49 3 74 -13 18 -26 20 -165 17 l-151 -3 0 79 c0 44 3 93 6 110 l6 30 114 4 c126 5 154 17 154 69 0 52 -28 57 -272 51 l-217 -5 27 75 c22 64 25 79 14 102 -9 20 -19 26 -44 26 -18 0 -38 -4 -45 -8z"/>
    <path d="M4542 3529 c-139 -9 -172 -21 -172 -67 0 -16 6 -37 14 -47 16 -23 21 -23 288 -11 169 8 189 7 213 -8 24 -16 26 -22 20 -54 -11 -60 -53 -134 -73 -128 -214 60 -473 36 -634 -60 -172 -104 -224 -301 -112 -433 127 -151 434 -51 716 235 l98 98 57 -24 c32 -12 173 -79 313 -148 443 -217 525 -251 685 -288 121 -28 426 -26 546 4 110 27 204 63 290 109 38 20 71 34 75 31 3 -4 -14 -44 -37 -90 -111 -215 -337 -348 -591 -348 -130 0 -243 26 -418 98 -362 147 -395 156 -560 156 -114 0 -134 -3 -220 -32 -52 -18 -138 -54 -190 -82 -286 -150 -372 -180 -523 -180 -130 0 -210 26 -434 140 -105 54 -235 113 -290 131 -92 31 -107 33 -238 34 -167 0 -180 -4 -445 -130 -246 -118 -346 -135 -537 -96 -61 13 -129 37 -202 72 -107 50 -111 51 -136 35 -39 -25 -35 -77 8 -110 46 -35 149 -81 254 -112 75 -23 107 -27 218 -28 164 -1 235 18 435 116 244 119 255 122 405 123 160 0 175 -5 480 -156 238 -118 294 -136 445 -145 175 -10 294 24 555 161 218 114 266 129 410 130 142 0 175 -9 454 -121 231 -94 342 -124 486 -131 381 -19 697 205 824 585 33 98 37 143 14 171 -29 36 -69 30 -149 -22 -223 -144 -426 -208 -659 -209 -237 0 -372 42 -785 244 -162 80 -332 162 -377 183 -46 21 -83 42 -83 47 0 5 8 25 19 46 68 135 41 245 -73 298 -57 26 -135 29 -384 13z m196 -426 c22 -8 20 -11 -35 -69 -175 -181 -425 -299 -510 -239 -12 8 -27 31 -33 49 -37 114 98 236 295 266 68 10 248 6 283 -7z"/>
  </g>
</svg>